MutatorSansInstance_200-300.ufo
<glyph name="comma" format="2">
  <advance width="219"/>
  <unicode hex="002C"/>
  <outline>
    <contour>
      <point x="149" y="0" type="line"/>
      <point x="149" y="180" type="line"/>
      <point x="71" y="180" type="line"/>
      <point x="71" y="0" type="line"/>
      <point x="112" y="-10" type="line"/>
      <point x="102" y="12" type="line"/>
      <point x="80" y="-103" type="line"/>
      <point x="104" y="-105" type="line"/>
    </contour>
  </outline>
</glyph>
<glyph name="period" format="2">
  <advance width="218"/>
  <unicode hex="002E"/>
  <outline>
    <contour>
      <point x="70" y="0" type="line"/>
      <point x="148" y="0" type="line"/>
      <point x="148" y="180" type="line"/>
      <point x="70" y="180" type="line"/>
    </contour>
  </outline>
</glyph>
<glyph name="A" format="2">
  <advance width="693"/>
  <unicode hex="0041"/>
  <outline>
    <contour>
      <point x="28" y="0" type="line"/>
      <point x="115" y="0" type="line"/>
      <point x="341" y="720" type="line"/>
      <point x="265" y="720" type="line"/>
    </contour>
    <contour>
      <point x="131" y="170" type="line"/>
      <point x="549" y="170" type="line"/>
      <point x="549" y="240" type="line"/>
      <point x="131" y="240" type="line"/>
    </contour>
    <contour>
      <point x="552" y="0" type="line"/>
      <point x="665" y="0" type="line"/>
      <point x="428" y="720" type="line"/>
      <point x="323" y="720" type="line"/>
    </contour>
    <contour>
      <point x="285" y="638" type="line"/>
      <point x="399" y="638" type="line"/>
      <point x="399" y="720" type="line"/>
      <point x="285" y="720" type="line"/>
    </contour>
  </outline>
</glyph>
<glyph name="B" format="2">
  <advance width="707"/>
  <unicode hex="0042"/>
  <outline>
    <contour>
      <point x="70" y="0" type="line"/>
      <point x="171" y="0" type="line"/>
      <point x="171" y="720" type="line"/>
      <point x="70" y="720" type="line"/>
    </contour>
    <contour>
      <point x="145" y="335" type="line"/>
      <point x="424" y="335" type="line" smooth="yes"/>
      <point x="518" y="335"/>
      <point x="564" y="283"/>
      <point x="564" y="204" type="curve" smooth="yes"/>
      <point x="564" y="125"/>
      <point x="516" y="76"/>
      <point x="418" y="76" type="curve" smooth="yes"/>
      <point x="145" y="76" type="line"/>
      <point x="145" y="0" type="line"/>
      <point x="428" y="0" type="line" smooth="yes"/>
      <point x="603" y="0"/>
      <point x="663" y="83"/>
      <point x="663" y="192" type="curve" smooth="yes"/>
      <point x="663" y="290"/>
      <point x="611" y="363"/>
      <point x="495" y="376" type="curve"/>
      <point x="498" y="354" type="line"/>
      <point x="586" y="372"/>
      <point x="634" y="440"/>
      <point x="634" y="526" type="curve" smooth="yes"/>
      <point x="634" y="637"/>
      <point x="580" y="720"/>
      <point x="403" y="720" type="curve" smooth="yes"/>
      <point x="145" y="720" type="line"/>
      <point x="145" y="646" type="line"/>
      <point x="396" y="646" type="line" smooth="yes"/>
      <point x="499" y="646"/>
      <point x="536" y="595"/>
      <point x="536" y="518" type="curve" smooth="yes"/>
      <point x="536" y="440"/>
      <point x="491" y="389"/>
      <point x="396" y="389" type="curve" smooth="yes"/>
      <point x="145" y="389" type="line"/>
    </contour>
  </outline>
</glyph>
<glyph name="C" format="2">
  <advance width="790"/>
  <unicode hex="0043"/>
  <outline>
    <contour>
      <point x="640" y="289" type="line"/>
      <point x="621" y="129"/>
      <point x="538" y="72"/>
      <point x="411" y="72" type="curve" smooth="yes"/>
      <point x="386" y="72" type="line" smooth="yes"/>
      <point x="244" y="72"/>
      <point x="155" y="148"/>
      <point x="155" y="362" type="curve" smooth="yes"/>
      <point x="155" y="575"/>
      <point x="244" y="648"/>
      <point x="386" y="648" type="curve" smooth="yes"/>
      <point x="411" y="648" type="line" smooth="yes"/>
      <point x="537" y="648"/>
      <point x="620" y="594"/>
      <point x="639" y="438" type="curve"/>
      <point x="737" y="448" type="line"/>
      <point x="712" y="646"/>
      <point x="592" y="730"/>
      <point x="415" y="730" type="curve" smooth="yes"/>
      <point x="382" y="730" type="line" smooth="yes"/>
      <point x="179" y="730"/>
      <point x="52" y="623"/>
      <point x="52" y="362" type="curve" smooth="yes"/>
      <point x="52" y="100"/>
      <point x="179" y="-10"/>
      <point x="382" y="-10" type="curve" smooth="yes"/>
      <point x="415" y="-10" type="line" smooth="yes"/>
      <point x="594" y="-10"/>
      <point x="713" y="76"/>
      <point x="737" y="278" type="curve"/>
    </contour>
  </outline>
</glyph>
<glyph name="D" format="2">
  <advance width="722"/>
  <unicode hex="0044"/>
  <outline>
    <contour>
      <point x="70" y="0" type="line"/>
      <point x="168" y="0" type="line"/>
      <point x="168" y="720" type="line"/>
      <point x="70" y="720" type="line"/>
    </contour>
    <contour>
      <point x="144" y="640" type="line"/>
      <point x="313" y="640" type="line" smooth="yes"/>
      <point x="466" y="640"/>
      <point x="567" y="575"/>
      <point x="567" y="362" type="curve" smooth="yes"/>
      <point x="567" y="148"/>
      <point x="466" y="80"/>
      <point x="313" y="80" type="curve" smooth="yes"/>
      <point x="143" y="80" type="line"/>
      <point x="143" y="0" type="line"/>
      <point x="318" y="0" type="line" smooth="yes"/>
      <point x="530" y="0"/>
      <point x="670" y="101"/>
      <point x="670" y="362" type="curve" smooth="yes"/>
      <point x="670" y="622"/>
      <point x="530" y="720"/>
      <point x="318" y="720" type="curve" smooth="yes"/>
      <point x="144" y="720" type="line"/>
    </contour>
  </outline>
</glyph>
<glyph name="E" format="2">
  <advance width="633"/>
  <unicode hex="0045"/>
  <anchor x="322" y="765" name="top"/>
  <outline>
    <contour>
      <point x="72" y="0" type="line"/>
      <point x="169" y="0" type="line"/>
      <point x="169" y="720" type="line"/>
      <point x="72" y="720" type="line"/>
    </contour>
    <contour>
      <point x="106" y="637" type="line"/>
      <point x="574" y="637" type="line"/>
      <point x="574" y="720" type="line"/>
      <point x="106" y="720" type="line"/>
    </contour>
    <contour>
      <point x="106" y="0" type="line"/>
      <point x="574" y="0" type="line"/>
      <point x="574" y="83" type="line"/>
      <point x="106" y="83" type="line"/>
    </contour>
    <contour>
      <point x="106" y="330" type="line"/>
      <point x="517" y="330" type="line"/>
      <point x="517" y="393" type="line"/>
      <point x="106" y="393" type="line"/>
    </contour>
  </outline>
</glyph>
<glyph name="F" format="2">
  <advance width="651"/>
  <unicode hex="0046"/>
  <outline>
    <contour>
      <point x="70" y="0" type="line"/>
      <point x="172" y="0" type="line"/>
      <point x="172" y="720" type="line"/>
      <point x="70" y="720" type="line"/>
    </contour>
    <contour>
      <point x="106" y="640" type="line"/>
      <point x="581" y="640" type="line"/>
      <point x="581" y="720" type="line"/>
      <point x="106" y="720" type="line"/>
    </contour>
    <contour>
      <point x="106" y="299" type="line"/>
      <point x="556" y="299" type="line"/>
      <point x="556" y="371" type="line"/>
      <point x="106" y="371" type="line"/>
    </contour>
  </outline>
</glyph>
<glyph name="G" format="2">
  <advance width="815"/>
  <unicode hex="0047"/>
  <outline>
    <contour>
      <point x="350" y="302" type="line"/>
      <point x="661" y="302" type="line"/>
      <point x="661" y="216" type="line"/>
      <point x="696" y="0" type="line"/>
      <point x="747" y="0" type="line"/>
      <point x="747" y="349" type="line"/>
      <point x="350" y="349" type="line"/>
    </contour>
    <contour>
      <point x="654" y="301" type="line"/>
      <point x="636" y="130"/>
      <point x="552" y="72"/>
      <point x="423" y="72" type="curve" smooth="yes"/>
      <point x="386" y="72" type="line" smooth="yes"/>
      <point x="244" y="72"/>
      <point x="155" y="148"/>
      <point x="155" y="362" type="curve" smooth="yes"/>
      <point x="155" y="575"/>
      <point x="250" y="648"/>
      <point x="393" y="648" type="curve" smooth="yes"/>
      <point x="430" y="648" type="line" smooth="yes"/>
      <point x="556" y="648"/>
      <point x="635" y="594"/>
      <point x="654" y="438" type="curve"/>
      <point x="748" y="448" type="line"/>
      <point x="722" y="646"/>
      <point x="609" y="730"/>
      <point x="432" y="730" type="curve" smooth="yes"/>
      <point x="387" y="730" type="line" smooth="yes"/>
      <point x="184" y="730"/>
      <point x="52" y="623"/>
      <point x="52" y="362" type="curve" smooth="yes"/>
      <point x="52" y="100"/>
      <point x="179" y="-10"/>
      <point x="382" y="-10" type="curve" smooth="yes"/>
      <point x="416" y="-10" type="line" smooth="yes"/>
      <point x="594" y="-10"/>
      <point x="703" y="77"/>
      <point x="722" y="290" type="curve"/>
    </contour>
  </outline>
</glyph>
<glyph name="H" format="2">
  <advance width="718"/>
  <unicode hex="0048"/>
  <outline>
    <contour>
      <point x="70" y="0" type="line"/>
      <point x="172" y="0" type="line"/>
      <point x="172" y="720" type="line"/>
      <point x="70" y="720" type="line"/>
    </contour>
    <contour>
      <point x="113" y="320" type="line"/>
      <point x="607" y="320" type="line"/>
      <point x="607" y="401" type="line"/>
      <point x="113" y="401" type="line"/>
    </contour>
    <contour>
      <point x="546" y="0" type="line"/>
      <point x="648" y="0" type="line"/>
      <point x="648" y="720" type="line"/>
      <point x="546" y="720" type="line"/>
    </contour>
  </outline>
</glyph>
<glyph name="I" format="2">
  <advance width="542"/>
  <unicode hex="0049"/>
  <outline>
    <contour>
      <point x="221" y="0" type="line"/>
      <point x="323" y="0" type="line"/>
      <point x="323" y="720" type="line"/>
      <point x="221" y="720" type="line"/>
    </contour>
    <contour>
      <point x="70" y="636" type="line"/>
      <point x="472" y="636" type="line"/>
      <point x="472" y="720" type="line"/>
      <point x="70" y="720" type="line"/>
    </contour>
    <contour>
      <point x="70" y="0" type="line"/>
      <point x="472" y="0" type="line"/>
      <point x="472" y="84" type="line"/>
      <point x="70" y="84" type="line"/>
    </contour>
  </outline>
</glyph>
<glyph name="J" format="2">
  <advance width="570"/>
  <unicode hex="004A"/>
  <outline>
    <contour>
      <point x="182" y="-10" type="curve" smooth="yes"/>
      <point x="379" y="-10"/>
      <point x="500" y="76"/>
      <point x="500" y="283" type="curve" smooth="yes"/>
      <point x="500" y="720" type="line"/>
      <point x="397" y="720" type="line"/>
      <point x="397" y="294" type="line" smooth="yes"/>
      <point x="397" y="132"/>
      <point x="314" y="76"/>
      <point x="177" y="76" type="curve" smooth="yes"/>
      <point x="147" y="76"/>
      <point x="117" y="79"/>
      <point x="89" y="86" type="curve"/>
      <point x="70" y="2" type="line"/>
      <point x="104" y="-6"/>
      <point x="141" y="-10"/>
    </contour>
  </outline>
</glyph>
<glyph name="K" format="2">
  <advance width="678"/>
  <unicode hex="004B"/>
  <outline>
    <contour>
      <point x="70" y="0" type="line"/>
      <point x="172" y="0" type="line"/>
      <point x="172" y="720" type="line"/>
      <point x="70" y="720" type="line"/>
    </contour>
    <contour>
      <point x="138" y="320" type="line"/>
      <point x="215" y="320" type="line"/>
      <point x="515" y="0" type="line"/>
      <point x="644" y="0" type="line"/>
      <point x="289" y="392" type="line"/>
      <point x="226" y="376" type="line"/>
      <point x="138" y="376" type="line"/>
    </contour>
    <contour>
      <point x="197" y="358" type="line"/>
      <point x="270" y="325" type="line"/>
      <point x="638" y="720" type="line"/>
      <point x="521" y="720" type="line"/>
    </contour>
  </outline>
</glyph>
<glyph name="L" format="2">
  <advance width="581"/>
  <unicode hex="004C"/>
  <outline>
    <contour>
      <point x="70" y="0" type="line"/>
      <point x="172" y="0" type="line"/>
      <point x="172" y="720" type="line"/>
      <point x="70" y="720" type="line"/>
    </contour>
    <contour>
      <point x="106" y="0" type="line"/>
      <point x="551" y="0" type="line"/>
      <point x="551" y="81" type="line"/>
      <point x="106" y="81" type="line"/>
    </contour>
  </outline>
</glyph>
<glyph name="M" format="2">
  <advance width="775"/>
  <unicode hex="004D"/>
  <outline>
    <contour>
      <point x="70" y="0" type="line"/>
      <point x="156" y="0" type="line"/>
      <point x="156" y="720" type="line"/>
      <point x="70" y="720" type="line"/>
    </contour>
    <contour>
      <point x="704" y="0" type="line"/>
      <point x="704" y="720" type="line"/>
      <point x="618" y="720" type="line"/>
      <point x="618" y="0" type="line"/>
    </contour>
    <contour>
      <point x="661" y="608" type="line"/>
      <point x="618" y="720" type="line"/>
      <point x="371" y="364" type="line"/>
      <point x="403" y="364" type="line"/>
      <point x="156" y="720" type="line"/>
      <point x="114" y="608" type="line"/>
      <point x="367" y="250" type="line"/>
      <point x="408" y="250" type="line"/>
    </contour>
  </outline>
</glyph>
<glyph name="N" format="2">
  <advance width="726"/>
  <unicode hex="004E"/>
  <outline>
    <contour>
      <point x="70" y="0" type="line"/>
      <point x="154" y="0" type="line"/>
      <point x="154" y="720" type="line"/>
      <point x="70" y="720" type="line"/>
    </contour>
    <contour>
      <point x="107" y="621" type="line"/>
      <point x="572" y="0" type="line"/>
      <point x="620" y="99" type="line"/>
      <point x="154" y="720" type="line"/>
    </contour>
    <contour>
      <point x="572" y="0" type="line"/>
      <point x="656" y="0" type="line"/>
      <point x="656" y="720" type="line"/>
      <point x="572" y="720" type="line"/>
    </contour>
  </outline>
</glyph>
<glyph name="O" format="2">
  <advance width="800"/>
  <unicode hex="004F"/>
  <outline>
    <contour>
      <point x="382" y="-10" type="curve" smooth="yes"/>
      <point x="418" y="-10" type="line" smooth="yes"/>
      <point x="620" y="-10"/>
      <point x="747" y="100"/>
      <point x="747" y="362" type="curve" smooth="yes"/>
      <point x="747" y="623"/>
      <point x="620" y="730"/>
      <point x="418" y="730" type="curve" smooth="yes"/>
      <point x="382" y="730" type="line" smooth="yes"/>
      <point x="179" y="730"/>
      <point x="52" y="623"/>
      <point x="52" y="362" type="curve" smooth="yes"/>
      <point x="52" y="100"/>
      <point x="179" y="-10"/>
    </contour>
    <contour>
      <point x="386" y="72" type="line" smooth="yes"/>
      <point x="244" y="72"/>
      <point x="155" y="148"/>
      <point x="155" y="362" type="curve" smooth="yes"/>
      <point x="155" y="575"/>
      <point x="244" y="648"/>
      <point x="386" y="648" type="curve" smooth="yes"/>
      <point x="413" y="648" type="line" smooth="yes"/>
      <point x="556" y="648"/>
      <point x="644" y="575"/>
      <point x="644" y="362" type="curve" smooth="yes"/>
      <point x="644" y="148"/>
      <point x="556" y="72"/>
      <point x="413" y="72" type="curve" smooth="yes"/>
    </contour>
  </outline>
</glyph>
<glyph name="P" format="2">
  <advance width="657"/>
  <unicode hex="0050"/>
  <outline>
    <contour>
      <point x="70" y="0" type="line"/>
      <point x="172" y="0" type="line"/>
      <point x="172" y="720" type="line"/>
      <point x="70" y="720" type="line"/>
    </contour>
    <contour>
      <point x="136" y="636" type="line"/>
      <point x="329" y="636" type="line" smooth="yes"/>
      <point x="476" y="636"/>
      <point x="531" y="559"/>
      <point x="531" y="441" type="curve" smooth="yes"/>
      <point x="531" y="321"/>
      <point x="476" y="247"/>
      <point x="329" y="247" type="curve" smooth="yes"/>
      <point x="136" y="247" type="line"/>
      <point x="136" y="162" type="line"/>
      <point x="322" y="162" type="line" smooth="yes"/>
      <point x="557" y="162"/>
      <point x="626" y="280"/>
      <point x="626" y="441" type="curve" smooth="yes"/>
      <point x="626" y="603"/>
      <point x="557" y="720"/>
      <point x="322" y="720" type="curve" smooth="yes"/>
      <point x="136" y="720" type="line"/>
    </contour>
  </outline>
</glyph>
<glyph name="Q" format="2">
  <advance width="800"/>
  <unicode hex="0051"/>
  <outline>
    <contour>
      <point x="446" y="-130" type="line"/>
      <point x="550" y="-130" type="line"/>
      <point x="447" y="44" type="line"/>
      <point x="356" y="30" type="line"/>
    </contour>
    <component base="O"/>
  </outline>
</glyph>
<glyph name="R" format="2">
  <advance width="679"/>
  <unicode hex="0052"/>
  <outline>
    <contour>
      <point x="519" y="0" type="line"/>
      <point x="631" y="0" type="line"/>
      <point x="538" y="132" type="line" smooth="yes"/>
      <point x="495" y="185"/>
      <point x="467" y="209"/>
      <point x="430" y="209" type="curve"/>
      <point x="371" y="209" type="line"/>
    </contour>
    <contour>
      <point x="70" y="0" type="line"/>
      <point x="172" y="0" type="line"/>
      <point x="172" y="720" type="line"/>
      <point x="70" y="720" type="line"/>
    </contour>
    <contour>
      <point x="136" y="636" type="line"/>
      <point x="332" y="636" type="line" smooth="yes"/>
      <point x="478" y="636"/>
      <point x="532" y="560"/>
      <point x="532" y="441" type="curve" smooth="yes"/>
      <point x="532" y="321"/>
      <point x="478" y="247"/>
      <point x="332" y="247" type="curve" smooth="yes"/>
      <point x="136" y="247" type="line"/>
      <point x="136" y="174" type="line"/>
      <point x="324" y="174" type="line" smooth="yes"/>
      <point x="557" y="174"/>
      <point x="628" y="290"/>
      <point x="628" y="447" type="curve" smooth="yes"/>
      <point x="628" y="605"/>
      <point x="555" y="720"/>
      <point x="323" y="720" type="curve" smooth="yes"/>
      <point x="136" y="720" type="line"/>
    </contour>
  </outline>
</glyph>
<glyph name="S" format="2">
  <advance width="676"/>
  <unicode hex="0053"/>
  <outline>
    <contour>
      <point x="620" y="184" type="curve" smooth="yes"/>
      <point x="620" y="302"/>
      <point x="550" y="355"/>
      <point x="393" y="396" type="curve" smooth="yes"/>
      <point x="303" y="421" type="line" smooth="yes"/>
      <point x="200" y="451"/>
      <point x="153" y="484"/>
      <point x="153" y="547" type="curve" smooth="yes"/>
      <point x="153" y="607"/>
      <point x="208" y="652"/>
      <point x="331" y="652" type="curve" smooth="yes"/>
      <point x="363" y="652" type="line" smooth="yes"/>
      <point x="461" y="652"/>
      <point x="536" y="634"/>
      <point x="598" y="606" type="curve"/>
      <point x="620" y="681" type="line"/>
      <point x="557" y="708"/>
      <point x="472" y="730"/>
      <point x="375" y="730" type="curve" smooth="yes"/>
      <point x="350" y="730" type="line" smooth="yes"/>
      <point x="156" y="730"/>
      <point x="65" y="654"/>
      <point x="66" y="535" type="curve" smooth="yes"/>
      <point x="66" y="424"/>
      <point x="138" y="368"/>
      <point x="290" y="327" type="curve" smooth="yes"/>
      <point x="378" y="302" type="line" smooth="yes"/>
      <point x="490" y="267"/>
      <point x="532" y="242"/>
      <point x="532" y="177" type="curve" smooth="yes"/>
      <point x="532" y="114"/>
      <point x="475" y="69"/>
      <point x="337" y="69" type="curve" smooth="yes"/>
      <point x="307" y="69" type="line" smooth="yes"/>
      <point x="211" y="69"/>
      <point x="131" y="86"/>
      <point x="64" y="117" type="curve"/>
      <point x="44" y="41" type="line"/>
      <point x="111" y="13"/>
      <point x="201" y="-10"/>
      <point x="294" y="-10" type="curve" smooth="yes"/>
      <point x="320" y="-10" type="line" smooth="yes"/>
      <point x="536" y="-10"/>
      <point x="621" y="71"/>
    </contour>
  </outline>
</glyph>
<glyph name="T" format="2">
  <advance width="682"/>
  <unicode hex="0054"/>
  <outline>
    <contour>
      <point x="290" y="0" type="line"/>
      <point x="392" y="0" type="line"/>
      <point x="392" y="720" type="line"/>
      <point x="290" y="720" type="line"/>
    </contour>
    <contour>
      <point x="30" y="638" type="line"/>
      <point x="652" y="638" type="line"/>
      <point x="652" y="720" type="line"/>
      <point x="30" y="720" type="line"/>
    </contour>
  </outline>
</glyph>
<glyph name="U" format="2">
  <advance width="728"/>
  <unicode hex="0055"/>
  <outline>
    <contour>
      <point x="364" y="-10" type="curve" smooth="yes"/>
      <point x="549" y="-10"/>
      <point x="656" y="70"/>
      <point x="656" y="260" type="curve" smooth="yes"/>
      <point x="656" y="720" type="line"/>
      <point x="554" y="720" type="line"/>
      <point x="554" y="253" type="line" smooth="yes"/>
      <point x="554" y="120"/>
      <point x="481" y="73"/>
      <point x="364" y="73" type="curve" smooth="yes"/>
      <point x="248" y="73"/>
      <point x="175" y="120"/>
      <point x="175" y="253" type="curve" smooth="yes"/>
      <point x="175" y="720" type="line"/>
      <point x="72" y="720" type="line"/>
      <point x="72" y="260" type="line" smooth="yes"/>
      <point x="72" y="70"/>
      <point x="178" y="-10"/>
    </contour>
  </outline>
</glyph>
<glyph name="V" format="2">
  <advance width="688"/>
  <unicode hex="0056"/>
  <outline>
    <contour>
      <point x="663" y="720" type="line"/>
      <point x="574" y="720" type="line"/>
      <point x="350" y="0" type="line"/>
      <point x="428" y="0" type="line"/>
    </contour>
    <contour>
      <point x="138" y="720" type="line"/>
      <point x="23" y="720" type="line"/>
      <point x="259" y="0" type="line"/>
      <point x="366" y="0" type="line"/>
    </contour>
    <contour>
      <point x="408" y="82" type="line"/>
      <point x="292" y="82" type="line"/>
      <point x="292" y="0" type="line"/>
      <point x="408" y="0" type="line"/>
    </contour>
  </outline>
</glyph>
<glyph name="W" format="2">
  <advance width="826"/>
  <unicode hex="0057"/>
  <outline>
    <contour>
      <point x="801" y="720" type="line"/>
      <point x="709" y="720" type="line"/>
      <point x="578" y="104" type="line"/>
      <point x="591" y="104" type="line"/>
      <point x="454" y="720" type="line"/>
      <point x="381" y="720" type="line"/>
      <point x="249" y="101" type="line"/>
      <point x="265" y="101" type="line"/>
      <point x="126" y="720" type="line"/>
      <point x="25" y="720" type="line"/>
      <point x="188" y="0" type="line"/>
      <point x="284" y="0" type="line"/>
      <point x="414" y="601" type="line"/>
      <point x="396" y="600" type="line"/>
      <point x="538" y="0" type="line"/>
      <point x="641" y="0" type="line"/>
    </contour>
  </outline>
</glyph>
<glyph name="X" format="2">
  <advance width="651"/>
  <unicode hex="0058"/>
  <outline>
    <contour>
      <point x="506" y="0" type="line"/>
      <point x="628" y="0" type="line"/>
      <point x="363" y="387" type="line"/>
      <point x="152" y="720" type="line"/>
      <point x="30" y="720" type="line"/>
      <point x="285" y="344" type="line"/>
    </contour>
    <contour>
      <point x="24" y="0" type="line"/>
      <point x="117" y="0" type="line"/>
      <point x="322" y="333" type="line"/>
      <point x="372" y="340" type="line"/>
      <point x="619" y="720" type="line"/>
      <point x="526" y="720" type="line"/>
      <point x="327" y="396" type="line"/>
      <point x="275" y="386" type="line"/>
    </contour>
  </outline>
</glyph>
<glyph name="Y" format="2">
  <advance width="649"/>
  <unicode hex="0059"/>
  <outline>
    <contour>
      <point x="628" y="720" type="line"/>
      <point x="540" y="720" type="line"/>
      <point x="312" y="206" type="line"/>
      <point x="373" y="199" type="line"/>
    </contour>
    <contour>
      <point x="134" y="720" type="line"/>
      <point x="21" y="720" type="line"/>
      <point x="275" y="199" type="line"/>
      <point x="366" y="206" type="line"/>
    </contour>
    <contour>
      <point x="376" y="253" type="line"/>
      <point x="274" y="253" type="line"/>
      <point x="274" y="0" type="line"/>
      <point x="376" y="0" type="line"/>
    </contour>
  </outline>
</glyph>
<glyph name="Z" format="2">
  <advance width="701"/>
  <unicode hex="005A"/>
  <outline>
    <contour>
      <point x="70" y="81" type="line"/>
      <point x="178" y="61" type="line"/>
      <point x="631" y="639" type="line"/>
      <point x="522" y="659" type="line"/>
    </contour>
    <contour>
      <point x="70" y="639" type="line"/>
      <point x="631" y="639" type="line"/>
      <point x="631" y="720" type="line"/>
      <point x="70" y="720" type="line"/>
    </contour>
    <contour>
      <point x="70" y="0" type="line"/>
      <point x="631" y="0" type="line"/>
      <point x="631" y="81" type="line"/>
      <point x="70" y="81" type="line"/>
    </contour>
  </outline>
</glyph>
